# xmcd
# 
# Track frame offsets:
#     150
#     22674
#     48866
#     74203
#     90565
#     107685
#     125332
#     141914
#     156508
#     177918
#     196325
#     205747
#     224409
#     240821
#     264250
# 
# Disc length: 4002
# 
# Revision: 1
# Processed by: cddbd v1.5.2PL0 Copyright (c) Steve Scherf et al.
# Submitted via: fre:ac v1.1beta1pre4
# 
DISCID=ce0fa00f
DTITLE=Michael Martin Murphey - Cowboy Songs Four Rangeland Rebel
DYEAR=1997
DGENRE=Western
TTITLE0=Song From Lonesome Dove
TTITLE1=Trail Song Medley
TTITLE2=Born to be a Cowboy
TTITLE3=Farther Down the Line
TTITLE4=Born to Buck Bad Luck
TTITLE5=Easy on the Pain
TTITLE6=Utah Carroll
TTITLE7=Freewheeler
TTITLE8=Rangeland Rebel
TTITLE9=Run Toward the Light
TTITLE10=The Bunkhouse Orchestra
TTITLE11=Little Joe the Wrangler
TTITLE12=Summer Ranges
TTITLE13=Old Horse
TTITLE14=Night Hawk
EXTD=
EXTT0=
EXTT1=
EXTT2=
EXTT3=
EXTT4=
EXTT5=
EXTT6=
EXTT7=
EXTT8=
EXTT9=
EXTT10=
EXTT11=
EXTT12=
EXTT13=
EXTT14=
PLAYORDER=
